<?xml version="1.0" standalone="no"?>
<!DOCTYPE svg PUBLIC "-//W3C//DTD SVG 20010904//EN"
 "http://www.w3.org/TR/2001/REC-SVG-20010904/DTD/svg10.dtd">
<svg version="1.0" xmlns="http://www.w3.org/2000/svg"
 width="2000.000000pt" height="2000.000000pt" viewBox="0 0 2000.000000 2000.000000"
 preserveAspectRatio="xMidYMid meet">
<metadata>
Created by potrace 1.15, written by Peter Selinger 2001-2017
</metadata>
<g transform="translate(0.000000,2000.000000) scale(0.100000,-0.100000)"
fill="#1733ff" stroke="none">
<path d="M0 10000 l0 -10000 10000 0 10000 0 0 10000 0 10000 -10000 0 -10000
0 0 -10000z m6508 3729 c316 -34 623 -147 862 -316 124 -88 346 -310 432 -433
85 -120 186 -315 231 -446 132 -379 149 -856 47 -1248 -89 -340 -260 -631
-512 -872 -357 -341 -776 -504 -1296 -504 -248 0 -440 30 -668 105 -690 226
-1091 717 -1199 1465 -23 157 -31 449 -16 591 37 353 172 703 382 984 88 119
262 286 379 364 255 171 570 282 890 314 82 9 379 6 468 -4z m3997 -13 c187
-42 361 -122 506 -231 81 -61 216 -193 292 -285 l37 -45 0 248 0 247 455 0
455 0 0 -1687 c0 -1676 -5 -1954 -35 -2201 -35 -286 -107 -499 -231 -690 -193
-296 -549 -480 -1054 -544 -162 -20 -738 -17 -905 5 -339 46 -587 126 -765
247 -131 89 -275 251 -342 384 -72 143 -108 301 -108 477 0 96 2 109 17 109
24 0 1044 -110 1070 -115 15 -4 23 -15 28 -37 38 -192 129 -283 322 -323 238
-49 597 -13 765 77 129 69 212 193 243 363 13 70 18 177 21 480 5 358 4 388
-11 370 -237 -298 -492 -471 -802 -540 -110 -25 -367 -31 -502 -11 -406 60
-741 290 -978 671 -135 217 -219 452 -270 760 -26 158 -26 677 0 845 69 444
214 762 462 1014 226 230 493 370 805 421 113 19 427 13 525 -9z m3588 -1014
c191 -521 389 -1075 438 -1232 50 -157 93 -287 94 -288 2 -2 25 63 50 145 99
316 157 478 494 1383 l348 935 497 3 c275 1 496 -2 496 -6 0 -5 -275 -702
-611 -1548 -336 -846 -660 -1664 -720 -1816 l-110 -278 -438 0 -437 0 -732
1819 c-403 1000 -732 1821 -732 1825 0 3 228 6 508 6 l507 0 348 -948z
m-10473 -2222 l0 -480 -485 0 -485 0 0 480 0 480 485 0 485 0 0 -480z m15680
-2112 c-6 -79 -29 -312 -50 -518 -59 -576 -65 -663 -65 -980 1 -379 24 -592
96 -889 31 -125 99 -345 137 -437 l21 -51 -82 -28 c-438 -147 -1064 -664
-1812 -1495 -853 -949 -1819 -2284 -2315 -3203 -47 -86 -88 -156 -92 -154 -3
1 -65 78 -137 170 -973 1251 -2176 2309 -3038 2671 -41 18 -75 36 -75 41 0 4
472 316 1048 691 l1049 682 21 -41 c12 -23 241 -499 509 -1057 268 -558 490
-1018 494 -1022 4 -5 26 40 50 100 247 611 671 1465 1066 2147 941 1623 2013
2836 3040 3439 55 32 109 64 120 71 11 7 22 11 23 10 2 -2 -1 -68 -8 -147z"/>
<path d="M6144 12940 c-277 -39 -519 -221 -645 -485 -88 -183 -122 -360 -122
-630 0 -270 34 -447 122 -630 112 -233 313 -403 553 -467 105 -28 297 -30 402
-4 303 73 526 294 629 621 47 149 61 262 61 485 0 214 -11 302 -54 459 -73
261 -260 487 -488 588 -126 56 -320 83 -458 63z"/>
<path d="M10370 12990 c-165 -21 -281 -81 -411 -210 -86 -85 -102 -107 -147
-200 -85 -176 -119 -333 -129 -600 -12 -342 40 -626 151 -824 42 -75 156 -201
224 -248 278 -192 658 -160 919 76 150 137 240 311 290 561 26 128 25 558 0
694 -56 297 -180 505 -379 637 -143 96 -336 138 -518 114z"/>
</g>
</svg>
